####
#
# OBJ File Generated by Meshlab
#
####
# Object antPart.obj
#
# Vertices: 132
# Faces: 256
#
####
mtllib ./antPart.obj.mtl

vn 2.689451 0.821210 -2.575316
v -15.301194 15.393359 27.237339 0.752941 0.752941 0.752941
vn 1.096743 -0.619488 -2.635642
v -15.334111 15.358384 27.220455 0.752941 0.752941 0.752941
vn 0.147148 -2.919372 -1.571029
v -15.334102 15.310363 27.255226 0.752941 0.752941 0.752941
vn -1.444079 -2.010681 0.580241
v -15.356536 15.312498 27.301804 0.752941 0.752941 0.752941
vn 0.386829 -1.817055 2.695848
v -15.329169 15.331718 27.341351 0.752941 0.752941 0.752941
vn 1.413947 0.588832 2.473794
v -15.326741 15.390287 27.349127 0.752941 0.752941 0.752941
vn 3.024372 1.762622 1.540942
v -15.296893 15.411977 27.312426 0.752941 0.752941 0.752941
vn 2.071496 1.880234 -0.581780
v -15.304315 15.436173 27.267780 0.752941 0.752941 0.752941
vn -1.988659 2.068323 -2.486449
v -15.447043 15.431320 27.237322 0.752941 0.752941 0.752941
vn -1.331378 0.074700 -2.578874
v -15.435670 15.388504 27.219374 0.752941 0.752941 0.752941
vn -1.587005 -2.541038 -1.511282
v -15.458454 15.350120 27.254137 0.752941 0.752941 0.752941
vn 0.310830 -2.509547 0.603375
v -15.440774 15.343120 27.299604 0.752941 0.752941 0.752941
vn -1.290331 -1.481470 2.650243
v -15.453620 15.371044 27.338528 0.752941 0.752941 0.752941
vn -1.051768 1.256101 2.379665
v -15.428300 15.420408 27.348043 0.752941 0.752941 0.752941
vn -1.848930 3.018910 1.399132
v -15.442766 15.449836 27.312000 0.752941 0.752941 0.752941
vn -0.903905 2.651120 -0.603539
v -15.423197 15.465791 27.267813 0.752941 0.752941 0.752941
vn 3.640117 -0.944545 0.016920
v -15.280045 15.353620 27.285011 0.752941 0.752941 0.752941
vn -3.660724 0.852076 -0.009153
v -15.484299 15.405562 27.285013 0.752941 0.752941 0.752941
vn 4.337554 -0.178187 -6.339712
v -15.312031 15.367825 27.227062 0.752941 0.752941 0.752941
vn 1.909940 -4.079495 -5.699409
v -15.327696 15.328790 27.234211 0.752941 0.752941 0.752941
vn -1.566198 -6.179749 -0.522051
v -15.340749 15.300377 27.282206 0.752941 0.752941 0.752941
vn -1.355734 -5.124171 3.482858
v -15.338383 15.310615 27.323500 0.752941 0.752941 0.752941
vn 2.635467 -1.042637 6.627052
v -15.321066 15.357491 27.349962 0.752941 0.752941 0.752941
vn 5.216025 2.533851 5.061903
v -15.305831 15.394666 27.335314 0.752941 0.752941 0.752941
vn 6.150778 4.352881 0.827656
v -15.292507 15.423362 27.287233 0.752941 0.752941 0.752941
vn 5.783710 3.407147 -3.473621
v -15.294442 15.414983 27.253441 0.752941 0.752941 0.752941
vn -4.026323 2.147248 -6.131287
v -15.449745 15.405837 27.226757 0.752941 0.752941 0.752941
vn -3.873573 -2.610311 -5.559391
v -15.454982 15.367569 27.233446 0.752941 0.752941 0.752941
vn -1.556390 -6.321088 -0.381758
v -15.457891 15.339782 27.280243 0.752941 0.752941 0.752941
vn -1.263444 -5.329116 3.416858
v -15.455568 15.349836 27.320789 0.752941 0.752941 0.752941
vn -3.104325 0.328032 6.467384
v -15.448440 15.395887 27.347656 0.752941 0.752941 0.752941
vn -3.553825 4.852343 4.737123
v -15.443593 15.432465 27.334152 0.752941 0.752941 0.752941
vn -3.309038 6.789267 0.639115
v -15.440721 15.460633 27.287266 0.752941 0.752941 0.752941
vn -3.426210 5.818499 -3.405413
v -15.442654 15.452268 27.253531 0.752941 0.752941 0.752941
vn 1.015142 3.959640 -6.002326
v -15.364437 15.447676 27.222654 0.752941 0.752941 0.752941
vn -0.168896 -0.309907 -7.286332
v -15.378568 15.402957 27.197968 0.752941 0.752941 0.752941
vn -1.711070 -6.224390 -3.608701
v -15.390082 15.369562 27.218954 0.752941 0.752941 0.752941
vn -1.459622 -5.533740 1.451524
v -15.391424 15.370568 27.287493 0.752941 0.752941 0.752941
vn -1.087829 -3.809126 6.181416
v -15.382618 15.401871 27.349262 0.752941 0.752941 0.752941
vn 0.629090 2.883626 6.661173
v -15.369636 15.441622 27.353909 0.752941 0.752941 0.752941
vn 1.560755 6.126661 3.329034
v -15.359269 15.470048 27.312881 0.752941 0.752941 0.752941
vn 1.714309 6.664851 -1.740537
v -15.356780 15.474011 27.264383 0.752941 0.752941 0.752941
vn 7.096365 -0.396068 -2.926194
v -15.284971 15.369076 27.259781 0.752941 0.752941 0.752941
vn 5.600289 -4.792820 -1.766325
v -15.294196 15.331416 27.271885 0.752941 0.752941 0.752941
vn 5.975955 -3.459227 3.126451
v -15.291978 15.341016 27.310602 0.752941 0.752941 0.752941
vn 7.462700 0.799648 1.859733
v -15.282686 15.378966 27.299671 0.752941 0.752941 0.752941
vn -6.505806 3.010327 -2.846066
v -15.473099 15.416516 27.261040 0.752941 0.752941 0.752941
vn -7.192223 -1.643286 -1.776358
v -15.482040 15.382187 27.273130 0.752941 0.752941 0.752941
vn -6.940461 -0.308470 3.050903
v -15.480052 15.390796 27.307852 0.752941 0.752941 0.752941
vn -6.290494 4.191493 1.693675
v -15.470923 15.425933 27.299023 0.752941 0.752941 0.752941
vn 0.273630 1.133607 -3.430630
v -15.371204 15.425961 27.206760 0.752941 0.752941 0.752941
vn -0.569546 -1.952820 -3.148408
v -15.385227 15.383007 27.201494 0.752941 0.752941 0.752941
vn -0.835616 -3.151094 -0.541439
v -15.392162 15.365534 27.249792 0.752941 0.752941 0.752941
vn -0.667747 -2.487314 2.007743
v -15.387948 15.383775 27.323364 0.752941 0.752941 0.752941
vn -0.160880 -0.352430 3.753223
v -15.376193 15.422109 27.359198 0.752941 0.752941 0.752941
vn 0.617921 2.515845 2.473044
v -15.363784 15.458080 27.336300 0.752941 0.752941 0.752941
vn 0.880913 3.428076 0.676476
v -15.356848 15.475554 27.288000 0.752941 0.752941 0.752941
vn 0.707264 2.744939 -2.297383
v -15.359449 15.464295 27.242594 0.752941 0.752941 0.752941
vn 2.714721 -1.415950 -2.229858
v -15.296298 15.346747 27.248404 0.752941 0.752941 0.752941
vn 2.072626 -3.011961 0.631020
v -15.303931 15.320072 27.296631 0.752941 0.752941 0.752941
vn 3.074295 -0.261413 2.232500
v -15.292011 15.365306 27.323254 0.752941 0.752941 0.752941
vn 3.735758 0.868155 -0.448468
v -15.283516 15.392877 27.274754 0.752941 0.752941 0.752941
vn -3.142441 0.065379 -2.153673
v -15.473349 15.393896 27.250324 0.752941 0.752941 0.752941
vn -3.200731 -1.743927 0.618416
v -15.479232 15.369226 27.295292 0.752941 0.752941 0.752941
vn -2.940942 1.211380 2.122745
v -15.469324 15.411316 27.320583 0.752941 0.752941 0.752941
vn -2.885072 2.540461 -0.478213
v -15.463565 15.437236 27.275314 0.752941 0.752941 0.752941
vn 3.029461 1.313059 -1.907347
v -14.772860 15.380211 27.473684 0.000000 0.000000 0.000000
vn 1.338811 0.176621 -2.590285
v -14.806425 15.357121 27.443153 0.000000 0.000000 0.000000
vn 0.081928 -2.216958 -2.467986
v -14.814493 15.300569 27.459017 0.000000 0.000000 0.000000
vn -1.665803 -1.901897 -0.269758
v -14.841917 15.289576 27.501495 0.000000 0.000000 0.000000
vn -0.082838 -2.649762 1.921129
v -14.817799 15.290987 27.547306 0.000000 0.000000 0.000000
vn 1.162128 -0.449382 2.629251
v -14.811365 15.342805 27.575060 0.000000 0.000000 0.000000
vn 2.962925 0.769287 2.292886
v -14.775742 15.371856 27.550657 0.000000 0.000000 0.000000
vn 2.275933 1.705965 0.273452
v -14.775873 15.410351 27.516718 0.000000 0.000000 0.000000
vn -1.505608 3.004524 -1.766691
v -14.914005 15.433022 27.475145 0.000000 0.000000 0.000000
vn -1.012319 1.094904 -2.490990
v -14.904274 15.397701 27.444448 0.000000 0.000000 0.000000
vn -1.609373 -1.677396 -2.419858
v -14.934086 15.352863 27.461819 0.000000 0.000000 0.000000
vn 0.026331 -2.584425 -0.280582
v -14.922451 15.328940 27.503305 0.000000 0.000000 0.000000
vn -1.709107 -2.121464 1.860655
v -14.937326 15.343474 27.548330 0.000000 0.000000 0.000000
vn -1.211055 0.498718 2.575132
v -14.909213 15.383385 27.576353 0.000000 0.000000 0.000000
vn -1.737814 2.570088 2.205567
v -14.916872 15.424713 27.551702 0.000000 0.000000 0.000000
vn -0.601277 2.787235 0.281962
v -14.891037 15.452146 27.517494 0.000000 0.000000 0.000000
vn 3.521024 -1.320942 -0.020068
v -14.760804 15.324545 27.506166 0.000000 0.000000 0.000000
vn -3.550086 1.234398 -0.006385
v -14.958576 15.397358 27.507816 0.000000 0.000000 0.000000
vn 5.012831 1.448590 -5.640102
v -14.784545 15.361097 27.454365 0.000000 0.000000 0.000000
vn 2.207454 -2.122926 -6.587518
v -14.804165 15.324087 27.446272 0.000000 0.000000 0.000000
vn -2.009991 -5.412009 -2.754026
v -14.825040 15.282961 27.480242 0.000000 0.000000 0.000000
vn -2.177228 -5.796950 1.371676
v -14.826626 15.278367 27.522573 0.000000 0.000000 0.000000
vn 1.751973 -3.514840 6.043657
v -14.808608 15.311208 27.564934 0.000000 0.000000 0.000000
vn 4.788769 0.045936 6.026286
v -14.788700 15.349053 27.565338 0.000000 0.000000 0.000000
vn 6.357933 3.057439 2.773732
v -14.767522 15.390439 27.531406 0.000000 0.000000 0.000000
vn 6.413735 3.663138 -1.603364
v -14.766224 15.394199 27.496763 0.000000 0.000000 0.000000
vn -3.092986 4.545741 -5.308962
v -14.917599 15.413086 27.456228 0.000000 0.000000 0.000000
vn -3.408779 -0.109658 -6.410374
v -14.926781 15.375708 27.448803 0.000000 0.000000 0.000000
vn -2.028348 -5.592384 -2.671277
v -14.937427 15.334364 27.482681 0.000000 0.000000 0.000000
vn -2.095384 -5.977114 1.246345
v -14.938984 15.329852 27.524250 0.000000 0.000000 0.000000
vn -3.794585 -1.498439 5.910006
v -14.931165 15.363000 27.565884 0.000000 0.000000 0.000000
vn -3.657728 3.363815 5.824141
v -14.921722 15.401137 27.566322 0.000000 0.000000 0.000000
vn -2.777165 6.521725 2.684474
v -14.911071 15.442872 27.532488 0.000000 0.000000 0.000000
vn -2.505886 6.988046 -1.441545
v -14.909776 15.446625 27.497904 0.000000 0.000000 0.000000
vn 2.034117 5.596169 -4.157270
v -14.829173 15.443413 27.473715 0.000000 0.000000 0.000000
vn 0.651576 2.179457 -6.931089
v -14.844062 15.411610 27.434017 0.000000 0.000000 0.000000
vn -1.799107 -4.398960 -5.666176
v -14.860704 15.374725 27.441143 0.000000 0.000000 0.000000
vn -2.078918 -5.484459 -0.677155
v -14.869894 15.352788 27.505444 0.000000 0.000000 0.000000
vn -2.114271 -5.507116 4.370893
v -14.865706 15.360226 27.574726 0.000000 0.000000 0.000000
vn 0.093034 0.380489 7.275136
v -14.850048 15.394259 27.593880 0.000000 0.000000 0.000000
vn 1.674655 4.419577 5.358861
v -14.832637 15.433374 27.566210 0.000000 0.000000 0.000000
vn 2.459840 6.608116 0.819394
v -14.824216 15.453081 27.522453 0.000000 0.000000 0.000000
vn 7.329061 -0.230279 -2.304273
v -14.761453 15.348051 27.487545 0.000000 0.000000 0.000000
vn 5.343593 -4.549973 -2.863147
v -14.775158 15.309895 27.485073 0.000000 0.000000 0.000000
vn 5.260375 -4.993241 2.202020
v -14.776644 15.305587 27.524765 0.000000 0.000000 0.000000
vn 7.237370 -0.765269 2.612462
v -14.762984 15.343613 27.528439 0.000000 0.000000 0.000000
vn -5.855034 4.542556 -2.138084
v -14.943789 15.414317 27.490101 0.000000 0.000000 0.000000
vn -7.050381 -0.083186 -2.805229
v -14.956931 15.379244 27.488794 0.000000 0.000000 0.000000
vn -7.248557 -0.488465 2.189301
v -14.958264 15.375381 27.524387 0.000000 0.000000 0.000000
vn -6.068923 4.094767 2.531544
v -14.945247 15.410091 27.529037 0.000000 0.000000 0.000000
vn 0.764058 2.179678 -2.791833
v -14.835856 15.429271 27.450794 0.000000 0.000000 0.000000
vn -0.363033 -0.698612 -3.664811
v -14.852741 15.392578 27.429871 0.000000 0.000000 0.000000
vn -1.029600 -2.662705 -1.664539
v -14.866677 15.360843 27.468405 0.000000 0.000000 0.000000
vn -1.103151 -2.919294 0.961459
v -14.869502 15.352657 27.543825 0.000000 0.000000 0.000000
vn -0.624195 -1.571708 3.372994
v -14.858794 15.375031 27.591537 0.000000 0.000000 0.000000
vn 0.536706 1.445905 3.232441
v -14.840828 15.414858 27.583590 0.000000 0.000000 0.000000
vn 1.082123 2.870730 1.890322
v -14.826892 15.446593 27.545055 0.000000 0.000000 0.000000
vn 1.197555 3.252642 -1.139737
v -14.825148 15.451645 27.498507 0.000000 0.000000 0.000000
vn 2.825963 -0.896202 -2.357473
v -14.773224 15.332361 27.468269 0.000000 0.000000 0.000000
vn 1.724355 -3.272567 -0.287736
v -14.788617 15.292136 27.503494 0.000000 0.000000 0.000000
vn 2.761731 -1.360093 2.242065
v -14.776097 15.324033 27.545000 0.000000 0.000000 0.000000
vn 3.822319 0.517678 0.180572
v -14.759744 15.365083 27.509901 0.000000 0.000000 0.000000
vn -2.854761 1.158582 -2.241799
v -14.944699 15.396815 27.472231 0.000000 0.000000 0.000000
vn -3.386241 -1.456644 -0.282329
v -14.957813 15.359351 27.505241 0.000000 0.000000 0.000000
vn -3.054690 0.767929 2.168321
v -14.947396 15.388998 27.544254 0.000000 0.000000 0.000000
vn -2.585876 2.877253 0.202166
v -14.934263 15.427745 27.511383 0.000000 0.000000 0.000000
# 132 vertices, 0 vertices normals


usemtl material_0
vt 0.390625 0.312500
vt 0.406250 0.312500
vt 0.406250 0.500470
f 19/1/19 2/2/2 36/3/36
vt 0.390625 0.500470
f 19/1/19 36/3/36 51/4/51
vt 0.406250 0.688440
vt 0.390625 0.688440
f 36/3/36 10/5/10 27/6/27
f 36/3/36 27/6/27 51/4/51
vt 0.375000 0.688440
vt 0.375000 0.500470
f 27/6/27 9/7/9 35/8/35
f 27/6/27 35/8/35 51/4/51
vt 0.375000 0.312500
f 35/8/35 1/9/1 19/1/19
f 35/8/35 19/1/19 51/4/51
vt 0.421875 0.312500
vt 0.437500 0.312500
vt 0.437500 0.500470
f 20/10/20 3/11/3 37/12/37
vt 0.421875 0.500470
f 20/10/20 37/12/37 52/13/52
vt 0.437500 0.688440
vt 0.421875 0.688440
f 37/12/37 11/14/11 28/15/28
f 37/12/37 28/15/28 52/13/52
f 28/15/28 10/5/10 36/3/36
f 28/15/28 36/3/36 52/13/52
f 36/3/36 2/2/2 20/10/20
f 36/3/36 20/10/20 52/13/52
vt 0.453125 0.312500
vt 0.468750 0.312500
vt 0.468750 0.500470
f 21/16/21 4/17/4 38/18/38
vt 0.453125 0.500470
f 21/16/21 38/18/38 53/19/53
vt 0.468750 0.688440
vt 0.453125 0.688440
f 38/18/38 12/20/12 29/21/29
f 38/18/38 29/21/29 53/19/53
f 29/21/29 11/14/11 37/12/37
f 29/21/29 37/12/37 53/19/53
f 37/12/37 3/11/3 21/16/21
f 37/12/37 21/16/21 53/19/53
vt 0.484375 0.312500
vt 0.500000 0.312500
vt 0.500000 0.500470
f 22/22/22 5/23/5 39/24/39
vt 0.484375 0.500470
f 22/22/22 39/24/39 54/25/54
vt 0.500000 0.688440
vt 0.484375 0.688440
f 39/24/39 13/26/13 30/27/30
f 39/24/39 30/27/30 54/25/54
f 30/27/30 12/20/12 38/18/38
f 30/27/30 38/18/38 54/25/54
f 38/18/38 4/17/4 22/22/22
f 38/18/38 22/22/22 54/25/54
vt 0.515625 0.312500
vt 0.531250 0.312500
vt 0.531250 0.500470
f 23/28/23 6/29/6 40/30/40
vt 0.515625 0.500470
f 23/28/23 40/30/40 55/31/55
vt 0.531250 0.688440
vt 0.515625 0.688440
f 40/30/40 14/32/14 31/33/31
f 40/30/40 31/33/31 55/31/55
f 31/33/31 13/26/13 39/24/39
f 31/33/31 39/24/39 55/31/55
f 39/24/39 5/23/5 23/28/23
f 39/24/39 23/28/23 55/31/55
vt 0.546875 0.312500
vt 0.562500 0.312500
vt 0.562500 0.500470
f 24/34/24 7/35/7 41/36/41
vt 0.546875 0.500470
f 24/34/24 41/36/41 56/37/56
vt 0.562500 0.688440
vt 0.546875 0.688440
f 41/36/41 15/38/15 32/39/32
f 41/36/41 32/39/32 56/37/56
f 32/39/32 14/32/14 40/30/40
f 32/39/32 40/30/40 56/37/56
f 40/30/40 6/29/6 24/34/24
f 40/30/40 24/34/24 56/37/56
vt 0.578125 0.312500
vt 0.593750 0.312500
vt 0.593750 0.500470
f 25/40/25 8/41/8 42/42/42
vt 0.578125 0.500470
f 25/40/25 42/42/42 57/43/57
vt 0.593750 0.688440
vt 0.578125 0.688440
f 42/42/42 16/44/16 33/45/33
f 42/42/42 33/45/33 57/43/57
f 33/45/33 15/38/15 41/36/41
f 33/45/33 41/36/41 57/43/57
f 41/36/41 7/35/7 25/40/25
f 41/36/41 25/40/25 57/43/57
vt 0.609375 0.312500
vt 0.625000 0.312500
vt 0.625000 0.500470
f 26/46/26 1/47/1 35/48/35
vt 0.609375 0.500470
f 26/46/26 35/48/35 58/49/58
vt 0.625000 0.688440
vt 0.609375 0.688440
f 35/48/35 9/50/9 34/51/34
f 35/48/35 34/51/34 58/49/58
f 34/51/34 16/44/16 42/42/42
f 34/51/34 42/42/42 58/49/58
f 42/42/42 8/41/8 26/46/26
f 42/42/42 26/46/26 58/49/58
vt 0.555243 0.022882
vt 0.610485 0.045765
vt 0.551198 0.102709
f 19/52/19 1/53/1 43/54/43
vt 0.500000 0.060382
f 19/52/19 43/54/43 59/55/59
vt 0.500000 0.152734
vt 0.448802 0.102709
f 43/54/43 17/56/17 44/57/44
f 43/54/43 44/57/44 59/55/59
vt 0.389515 0.045765
vt 0.444757 0.022882
f 44/57/44 3/58/3 20/59/20
f 44/57/44 20/59/20 59/55/59
vt 0.500000 0.000000
f 20/59/20 2/60/2 19/52/19
f 20/59/20 19/52/19 59/55/59
vt 0.366632 0.101007
f 21/61/21 3/58/3 44/57/44
vt 0.405695 0.154688
f 21/61/21 44/57/44 60/62/60
vt 0.448802 0.205104
f 44/57/44 17/56/17 45/63/45
f 44/57/44 45/63/45 60/62/60
vt 0.389515 0.266735
vt 0.366632 0.211493
f 45/63/45 5/64/5 22/65/22
f 45/63/45 22/65/22 60/62/60
vt 0.343750 0.156250
f 22/65/22 4/66/4 21/61/21
f 22/65/22 21/61/21 60/62/60
vt 0.444757 0.289618
f 23/67/23 5/64/5 45/63/45
vt 0.500000 0.248993
f 23/67/23 45/63/45 61/68/61
vt 0.551198 0.205104
f 45/63/45 17/56/17 46/69/46
f 45/63/45 46/69/46 61/68/61
vt 0.610485 0.266735
vt 0.555243 0.289618
f 46/69/46 7/70/7 24/71/24
f 46/69/46 24/71/24 61/68/61
f 24/71/24 6/23/6 23/67/23
f 24/71/24 23/67/23 61/68/61
vt 0.633368 0.211493
f 25/72/25 7/70/7 46/69/46
vt 0.594305 0.154687
f 25/72/25 46/69/46 62/73/62
f 46/69/46 17/56/17 43/54/43
f 46/69/46 43/54/43 62/73/62
vt 0.633368 0.101007
f 43/54/43 1/53/1 26/74/26
f 43/54/43 26/74/26 62/73/62
vt 0.656250 0.156250
f 26/74/26 8/75/8 25/72/25
f 26/74/26 25/72/25 62/73/62
vt 0.551198 0.892604
vt 0.610485 0.954235
vt 0.555243 0.977118
f 47/76/47 9/77/9 27/78/27
vt 0.500000 0.936493
f 47/76/47 27/78/27 63/79/63
vt 0.500000 1.000000
vt 0.444757 0.977118
f 27/78/27 10/80/10 28/81/28
f 27/78/27 28/81/28 63/79/63
vt 0.389515 0.954235
vt 0.448802 0.892604
f 28/81/28 11/82/11 48/83/48
f 28/81/28 48/83/48 63/79/63
vt 0.500000 0.840234
f 48/83/48 18/84/18 47/76/47
f 48/83/48 47/76/47 63/79/63
vt 0.366632 0.898993
f 48/83/48 11/82/11 29/85/29
vt 0.405695 0.842188
f 48/83/48 29/85/29 64/86/64
vt 0.343750 0.843750
vt 0.366632 0.788507
f 29/85/29 12/87/12 30/88/30
f 29/85/29 30/88/30 64/86/64
vt 0.389515 0.733265
vt 0.448802 0.790209
f 30/88/30 13/89/13 49/90/49
f 30/88/30 49/90/49 64/86/64
f 49/90/49 18/84/18 48/83/48
f 49/90/49 48/83/48 64/86/64
vt 0.444757 0.710382
f 49/90/49 13/89/13 31/91/31
vt 0.500000 0.747882
f 49/90/49 31/91/31 65/92/65
vt 0.500000 0.687500
vt 0.555243 0.710382
f 31/91/31 14/93/14 32/94/32
f 31/91/31 32/94/32 65/92/65
vt 0.610485 0.733265
vt 0.551198 0.790209
f 32/94/32 15/95/15 50/96/50
f 32/94/32 50/96/50 65/92/65
f 50/96/50 18/84/18 49/90/49
f 50/96/50 49/90/49 65/92/65
vt 0.633368 0.788507
f 50/96/50 15/95/15 33/97/33
vt 0.594305 0.842188
f 50/96/50 33/97/33 66/98/66
vt 0.656250 0.843750
vt 0.633368 0.898993
f 33/97/33 16/99/16 34/100/34
f 33/97/33 34/100/34 66/98/66
f 34/100/34 9/77/9 47/76/47
f 34/100/34 47/76/47 66/98/66
f 47/76/47 18/84/18 50/96/50
f 47/76/47 50/96/50 66/98/66
f 85/1/85 68/2/68 102/3/102
f 85/1/85 102/3/102 117/4/117
f 102/3/102 76/5/76 93/6/93
f 102/3/102 93/6/93 117/4/117
f 93/6/93 75/7/75 101/8/101
f 93/6/93 101/8/101 117/4/117
f 101/8/101 67/9/67 85/1/85
f 101/8/101 85/1/85 117/4/117
f 86/10/86 69/11/69 103/12/103
f 86/10/86 103/12/103 118/13/118
f 103/12/103 77/14/77 94/15/94
f 103/12/103 94/15/94 118/13/118
f 94/15/94 76/5/76 102/3/102
f 94/15/94 102/3/102 118/13/118
f 102/3/102 68/2/68 86/10/86
f 102/3/102 86/10/86 118/13/118
f 87/16/87 70/17/70 104/18/104
f 87/16/87 104/18/104 119/19/119
f 104/18/104 78/20/78 95/21/95
f 104/18/104 95/21/95 119/19/119
f 95/21/95 77/14/77 103/12/103
f 95/21/95 103/12/103 119/19/119
f 103/12/103 69/11/69 87/16/87
f 103/12/103 87/16/87 119/19/119
f 88/22/88 71/23/71 105/24/105
f 88/22/88 105/24/105 120/25/120
f 105/24/105 79/26/79 96/27/96
f 105/24/105 96/27/96 120/25/120
f 96/27/96 78/20/78 104/18/104
f 96/27/96 104/18/104 120/25/120
f 104/18/104 70/17/70 88/22/88
f 104/18/104 88/22/88 120/25/120
f 89/28/89 72/29/72 106/30/106
f 89/28/89 106/30/106 121/31/121
f 106/30/106 80/32/80 97/33/97
f 106/30/106 97/33/97 121/31/121
f 97/33/97 79/26/79 105/24/105
f 97/33/97 105/24/105 121/31/121
f 105/24/105 71/23/71 89/28/89
f 105/24/105 89/28/89 121/31/121
f 90/34/90 73/35/73 107/36/107
f 90/34/90 107/36/107 122/37/122
f 107/36/107 81/38/81 98/39/98
f 107/36/107 98/39/98 122/37/122
f 98/39/98 80/32/80 106/30/106
f 98/39/98 106/30/106 122/37/122
f 106/30/106 72/29/72 90/34/90
f 106/30/106 90/34/90 122/37/122
f 91/40/91 74/41/74 108/42/108
f 91/40/91 108/42/108 123/43/123
f 108/42/108 82/44/82 99/45/99
f 108/42/108 99/45/99 123/43/123
f 99/45/99 81/38/81 107/36/107
f 99/45/99 107/36/107 123/43/123
f 107/36/107 73/35/73 91/40/91
f 107/36/107 91/40/91 123/43/123
f 92/46/92 67/47/67 101/48/101
f 92/46/92 101/48/101 124/49/124
f 101/48/101 75/50/75 100/51/100
f 101/48/101 100/51/100 124/49/124
f 100/51/100 82/44/82 108/42/108
f 100/51/100 108/42/108 124/49/124
f 108/42/108 74/41/74 92/46/92
f 108/42/108 92/46/92 124/49/124
f 85/52/85 67/53/67 109/54/109
f 85/52/85 109/54/109 125/55/125
f 109/54/109 83/56/83 110/57/110
f 109/54/109 110/57/110 125/55/125
f 110/57/110 69/58/69 86/59/86
f 110/57/110 86/59/86 125/55/125
f 86/59/86 68/60/68 85/52/85
f 86/59/86 85/52/85 125/55/125
f 87/61/87 69/58/69 110/57/110
f 87/61/87 110/57/110 126/62/126
f 110/57/110 83/56/83 111/63/111
f 110/57/110 111/63/111 126/62/126
f 111/63/111 71/64/71 88/65/88
f 111/63/111 88/65/88 126/62/126
f 88/65/88 70/66/70 87/61/87
f 88/65/88 87/61/87 126/62/126
f 89/67/89 71/64/71 111/63/111
f 89/67/89 111/63/111 127/68/127
f 111/63/111 83/56/83 112/69/112
f 111/63/111 112/69/112 127/68/127
f 112/69/112 73/70/73 90/71/90
f 112/69/112 90/71/90 127/68/127
f 90/71/90 72/23/72 89/67/89
f 90/71/90 89/67/89 127/68/127
f 91/72/91 73/70/73 112/69/112
f 91/72/91 112/69/112 128/73/128
f 112/69/112 83/56/83 109/54/109
f 112/69/112 109/54/109 128/73/128
f 109/54/109 67/53/67 92/74/92
f 109/54/109 92/74/92 128/73/128
f 92/74/92 74/75/74 91/72/91
f 92/74/92 91/72/91 128/73/128
f 113/76/113 75/77/75 93/78/93
f 113/76/113 93/78/93 129/79/129
f 93/78/93 76/80/76 94/81/94
f 93/78/93 94/81/94 129/79/129
f 94/81/94 77/82/77 114/83/114
f 94/81/94 114/83/114 129/79/129
f 114/83/114 84/84/84 113/76/113
f 114/83/114 113/76/113 129/79/129
f 114/83/114 77/82/77 95/85/95
f 114/83/114 95/85/95 130/86/130
f 95/85/95 78/87/78 96/88/96
f 95/85/95 96/88/96 130/86/130
f 96/88/96 79/89/79 115/90/115
f 96/88/96 115/90/115 130/86/130
f 115/90/115 84/84/84 114/83/114
f 115/90/115 114/83/114 130/86/130
f 115/90/115 79/89/79 97/91/97
f 115/90/115 97/91/97 131/92/131
f 97/91/97 80/93/80 98/94/98
f 97/91/97 98/94/98 131/92/131
f 98/94/98 81/95/81 116/96/116
f 98/94/98 116/96/116 131/92/131
f 116/96/116 84/84/84 115/90/115
f 116/96/116 115/90/115 131/92/131
f 116/96/116 81/95/81 99/97/99
f 116/96/116 99/97/99 132/98/132
f 99/97/99 82/99/82 100/100/100
f 99/97/99 100/100/100 132/98/132
f 100/100/100 75/77/75 113/76/113
f 100/100/100 113/76/113 132/98/132
f 113/76/113 84/84/84 116/96/116
f 113/76/113 116/96/116 132/98/132
# 256 faces, 100 coords texture

# End of File
