# This file uses centimeters as units for non-parametric coordinates.

mtllib groundClosing.mtl
g default
v -62.909025 -0.856741 55.453361
v -18.690992 -0.856741 55.453361
v -62.909025 8.941604 55.453361
v -18.690992 8.941604 55.453361
v -62.909025 8.941604 52.703417
v -18.690992 8.941604 52.703417
v -62.909025 -0.856741 52.703417
v -18.690992 -0.856741 52.703417
v -62.909025 -1.045759 66.097933
v -16.705078 -1.702592 68.736261
v -16.705078 8.284771 68.736261
v -62.909025 8.941604 66.097933
v -47.161477 -1.045759 78.515161
v -18.690992 -1.045759 85.405994
v -18.690992 8.941604 85.405994
v -47.161477 8.941604 78.515161
v 61.331224 -6.108542 54.927473
v 61.331224 3.878821 54.927473
v 62.384199 4.353963 72.679466
v 62.384199 -5.633400 72.679466
v 84.891932 -3.782185 48.221685
v 84.891932 3.328559 48.221685
v 76.364615 6.205178 61.458742
v 76.364615 -3.782185 61.458742
v 81.351751 -2.896515 -83.143375
v 81.351751 4.214230 -83.143375
v 103.473632 4.214230 -83.143375
v 103.473632 -2.896515 -83.143375
v 78.522444 4.324886 -69.765906
v 78.522444 -3.093426 -69.765906
v 100.644336 -3.093426 -69.765906
v 100.644336 4.017318 -69.765906
v 60.722348 7.305163 -45.905367
v 60.722348 -0.216177 -45.905367
v 82.844228 -0.216177 -45.905367
v 82.844228 6.894567 -45.905367
v 65.316610 5.537863 -59.770220
v 65.316610 -1.928795 -59.770220
v 87.438501 -1.928795 -59.770220
v 87.438501 5.181949 -59.770220
v 32.943024 5.054666 64.940161
v 32.943024 -4.932698 64.940161
v 32.943024 -4.932698 80.618396
v 32.943024 5.054666 80.618396
vt 0.375000 0.000000
vt 0.625000 0.000000
vt 0.375000 0.250000
vt 0.625000 0.250000
vt 0.375000 0.500000
vt 0.625000 0.500000
vt 0.375000 0.750000
vt 0.625000 0.750000
vt 0.375000 1.000000
vt 0.625000 1.000000
vt 0.875000 0.000000
vt 0.875000 0.250000
vt 0.125000 0.000000
vt 0.125000 0.250000
vt 0.375000 0.000000
vt 0.625000 0.000000
vt 0.625000 0.250000
vt 0.375000 0.250000
vt 0.375000 0.000000
vt 0.625000 0.000000
vt 0.625000 0.250000
vt 0.375000 0.250000
vt 0.625000 0.000000
vt 0.625000 0.250000
vt 0.625000 0.250000
vt 0.625000 0.000000
vt 0.625000 0.000000
vt 0.625000 0.250000
vt 0.625000 0.250000
vt 0.625000 0.000000
vt 0.625000 0.000000
vt 0.625000 0.250000
vt 0.625000 0.250000
vt 0.625000 0.000000
vt 0.625000 0.250000
vt 0.625000 0.000000
vt 0.625000 0.000000
vt 0.625000 0.250000
vt 0.625000 0.250000
vt 0.625000 0.000000
vt 0.625000 0.000000
vt 0.625000 0.250000
vt 0.625000 0.250000
vt 0.625000 0.000000
vt 0.625000 0.000000
vt 0.625000 0.250000
vt 0.625000 0.250000
vt 0.625000 0.000000
vt 0.625000 0.000000
vt 0.625000 0.250000
vn -0.235242 0.000000 0.971937
vn -0.014981 0.000000 0.999888
vn -0.040133 0.000000 0.999194
vn -0.235242 0.000000 0.971937
vn 0.005286 0.999745 0.021958
vn 0.005292 0.999744 0.021982
vn 0.000000 1.000000 0.000000
vn 0.000000 1.000000 0.000000
vn 0.000000 0.000000 -1.000000
vn 0.000000 0.000000 -1.000000
vn 0.000000 0.000000 -1.000000
vn 0.000000 0.000000 -1.000000
vn 0.000000 -1.000000 0.000000
vn 0.000000 -1.000000 0.000000
vn -0.004912 -0.999379 -0.034905
vn -0.004907 -0.999380 -0.034867
vn 0.992352 0.000000 -0.123444
vn 1.000000 0.000000 0.000000
vn 1.000000 0.000000 0.000000
vn 0.992423 0.000000 -0.122871
vn -1.000000 0.000000 0.000000
vn -1.000000 0.000000 0.000000
vn -1.000000 0.000000 0.000000
vn -1.000000 0.000000 0.000000
vn -0.042712 -0.999004 0.012885
vn -0.007521 -0.999634 -0.025999
vn 0.989007 0.000000 -0.147866
vn 0.989007 0.000000 -0.147866
vn 0.007877 0.999873 0.013890
vn 0.042766 0.998975 -0.014824
vn -0.824151 0.000000 0.566370
vn -0.824682 0.000000 0.565597
vn -0.057145 -0.998193 0.018598
vn -0.012422 -0.999518 0.028448
vn 0.997175 0.000000 0.075119
vn 0.996962 0.000000 0.077890
vn 0.840665 0.000000 0.541556
vn 0.840665 0.000000 0.541556
vn 0.012422 0.999518 -0.028448
vn 0.057145 0.998193 -0.018598
vn -0.619182 0.000000 0.785247
vn -0.619182 0.000000 0.785247
vn -0.076238 0.000000 -0.997090
vn -0.076238 0.000000 -0.997090
vn -0.163720 0.000000 -0.986507
vn -0.186798 0.000000 -0.982398
vn 0.066613 0.997651 -0.015986
vn 0.039611 0.999097 -0.015359
vn 0.163066 0.000000 0.986615
vn 0.148454 0.000000 0.988919
vn -0.039611 -0.999097 0.015359
vn -0.066613 -0.997651 0.015986
vn 0.000000 0.000000 -1.000000
vn 0.000000 0.000000 -1.000000
vn 0.000000 0.000000 -1.000000
vn 0.000000 0.000000 -1.000000
vn -0.043447 0.997123 -0.062118
vn 0.025314 0.999529 -0.017350
vn -0.096252 0.986838 -0.129951
vn 0.025336 0.999091 0.034280
vn 0.405364 0.000000 0.914155
vn 0.401926 0.000000 0.915672
vn 0.625932 0.000000 0.779878
vn 0.625932 0.000000 0.779878
vn -0.024605 -0.999574 0.015715
vn 0.087772 -0.996112 0.007553
vn 0.044397 -0.997852 -0.048174
vn 0.132703 -0.990032 0.047187
vn -0.999982 0.000000 0.006038
vn -0.999982 0.000000 0.006038
vn -0.999587 0.000000 -0.028743
vn -0.999551 0.000000 -0.029980
vn 0.025142 0.999548 0.016496
vn 0.025170 0.999539 0.016990
vn 0.999702 0.000000 0.024396
vn 0.999742 0.000000 0.022733
vn 0.038448 -0.998856 -0.028449
vn 0.038332 -0.998873 -0.027990
vn -0.824721 0.000000 -0.565541
vn -0.818771 0.000000 -0.574120
vn -0.978358 0.000000 -0.206921
vn -0.978358 0.000000 -0.206921
vn 0.000000 -0.999224 0.039394
vn 0.000000 -0.999063 0.043273
vn 0.000000 -0.999892 -0.014718
vn 0.000000 -0.999892 -0.014718
vn 0.822030 0.000000 0.569445
vn 0.827243 0.000000 0.561844
vn 0.978358 0.000000 0.206920
vn 0.978358 0.000000 0.206920
vn 0.010504 0.999094 -0.041238
vn 0.010259 0.999223 -0.038056
vn 0.006951 0.999965 0.004694
vn 0.006951 0.999965 0.004694
vn -0.807793 0.000000 -0.589466
vn -0.796694 0.000000 -0.604383
vn 0.000000 -0.992795 0.119829
vn 0.000000 -0.992821 0.119611
vn 0.796050 0.000000 0.605231
vn 0.806963 0.000000 0.590602
vn 0.016208 0.993792 -0.110071
vn 0.016287 0.993713 -0.110770
vn -0.332623 0.000000 -0.943060
vn -0.332623 0.000000 -0.943060
s 1
g pCube1
usemtl initialShadingGroup
f 13/19/1 14/20/2 15/21/3 16/22/4
s 2
f 3/3/5 4/4/6 6/6/7 5/5/8
s off
f 5/5/9 6/6/10 8/8/11 7/7/12
s 3
f 7/7/13 8/8/14 2/10/15 1/9/16
s 4
f 2/2/17 8/11/18 6/12/19 4/4/20
s 5
f 7/13/21 1/1/22 3/3/23 5/14/24
s 3
f 1/1/16 2/2/15 10/16/25 9/15/26
s 4
f 2/2/17 4/4/20 11/17/27 10/16/28
s 2
f 4/4/6 3/3/5 12/18/29 11/17/30
s 5
f 3/3/23 1/1/22 9/15/31 12/18/32
s 3
f 9/15/26 10/16/25 14/20/33 13/19/34
s 6
f 21/27/35 22/28/36 23/29/37 24/30/38
s 2
f 11/17/30 12/18/29 16/22/39 15/21/40
s 5
f 12/18/32 9/15/31 13/19/41 16/22/42
s 7
f 10/16/43 11/17/44 41/47/45 42/48/46
s 2
f 11/17/30 15/21/40 44/50/47 41/47/48
s 1
f 15/21/3 14/20/2 43/49/49 44/50/50
s 3
f 14/20/33 10/16/25 42/48/51 43/49/52
s off
f 25/31/53 26/32/54 27/33/55 28/34/56
s 2
f 18/24/57 19/25/58 23/29/59 22/28/60
s 1
f 19/25/61 20/26/62 24/30/63 23/29/64
s 3
f 20/26/65 17/23/66 21/27/67 24/30/68
s 8
f 17/23/69 18/24/70 33/39/71 34/40/72
s 2
f 18/24/57 22/28/60 36/42/73 33/39/74
s 6
f 22/28/36 21/27/35 35/41/75 36/42/76
s 3
f 21/27/67 17/23/66 34/40/77 35/41/78
s 8
f 30/36/79 29/35/80 26/32/81 25/31/82
s 3
f 31/37/83 30/36/84 25/31/85 28/34/86
s 6
f 32/38/87 31/37/88 28/34/89 27/33/90
s 2
f 29/35/91 32/38/92 27/33/93 26/32/94
s 8
f 34/40/72 33/39/71 37/43/95 38/44/96
s 3
f 35/41/78 34/40/77 38/44/97 39/45/98
s 6
f 36/42/76 35/41/75 39/45/99 40/46/100
s 2
f 33/39/74 36/42/73 40/46/101 37/43/102
s 8
f 38/44/96 37/43/95 29/35/80 30/36/79
s 3
f 39/45/98 38/44/97 30/36/84 31/37/83
s 6
f 40/46/100 39/45/99 31/37/88 32/38/87
s 2
f 37/43/102 40/46/101 32/38/92 29/35/91
s 7
f 42/48/46 41/47/45 18/24/103 17/23/104
s 3
f 43/49/52 42/48/51 17/23/66 20/26/65
s 1
f 44/50/50 43/49/49 20/26/62 19/25/61
s 2
f 41/47/48 44/50/47 19/25/58 18/24/57
