####
#
# OBJ File Generated by Meshlab
#
####
# Object ratBody.obj
#
# Vertices: 18
# Faces: 32
#
####
mtllib ./ratBody.obj.mtl

vn 0.674353 2.001625 -3.416687
v -17.416475 1.651185 35.262257 0.752941 0.752941 0.752941
vn -0.116958 -0.733810 -4.312943
v -17.614796 0.943913 35.047268 0.752941 0.752941 0.752941
vn 0.168389 -3.158085 -2.476520
v -17.604904 0.254495 35.379520 0.752941 0.752941 0.752941
vn 0.979545 -4.261826 0.175992
v -17.392593 -0.013216 36.064384 0.752941 0.752941 0.752941
vn 2.103418 -2.463847 2.374891
v -17.102234 0.297601 36.700680 0.752941 0.752941 0.752941
vn 2.894729 0.271586 3.271149
v -16.903913 1.004873 36.915672 0.752941 0.752941 0.752941
vn 2.609381 2.695864 1.434725
v -16.913803 1.694291 36.583420 0.752941 0.752941 0.752941
vn 1.798226 3.799606 -1.217790
v -17.126114 1.962002 35.898552 0.752941 0.752941 0.752941
vn -1.838946 3.014831 -1.914180
v -19.266781 1.959075 35.956211 0.752941 0.752941 0.752941
vn -2.792753 0.484295 -3.334611
v -19.465101 1.251802 35.741219 0.752941 0.752941 0.752941
vn -2.729637 -2.177871 -1.985187
v -19.455210 0.562385 36.073471 0.752941 0.752941 0.752941
vn -2.070270 -3.822935 0.502781
v -19.242901 0.294674 36.758339 0.752941 0.752941 0.752941
vn -0.938825 -2.552612 2.955973
v -18.952539 0.605490 37.394634 0.752941 0.752941 0.752941
vn 0.014983 -0.022075 4.376405
v -18.754217 1.312763 37.609623 0.752941 0.752941 0.752941
vn -0.048134 2.640090 3.026982
v -18.764111 2.002180 37.277370 0.752941 0.752941 0.752941
vn -0.707502 4.285153 0.539014
v -18.976421 2.269892 36.592506 0.752941 0.752941 0.752941
vn 5.555542 -0.924443 -2.083590
v -16.444998 0.838885 35.676048 0.752941 0.752941 0.752941
vn -5.555542 0.924440 2.083589
v -19.924017 1.417791 36.980843 0.752941 0.752941 0.752941
# 18 vertices, 0 vertices normals


usemtl material_0
vt 0.375000 0.312500
vt 0.406250 0.312500
vt 0.406250 0.688440
f 1/1/1 2/2/2 10/3/10
vt 0.375000 0.688440
f 1/1/1 10/3/10 9/4/9
vt 0.437500 0.312500
vt 0.437500 0.688440
f 2/2/2 3/5/3 11/6/11
f 2/2/2 11/6/11 10/3/10
vt 0.468750 0.312500
vt 0.468750 0.688440
f 3/5/3 4/7/4 12/8/12
f 3/5/3 12/8/12 11/6/11
vt 0.500000 0.312500
vt 0.500000 0.688440
f 4/7/4 5/9/5 13/10/13
f 4/7/4 13/10/13 12/8/12
vt 0.531250 0.312500
vt 0.531250 0.688440
f 5/9/5 6/11/6 14/12/14
f 5/9/5 14/12/14 13/10/13
vt 0.562500 0.312500
vt 0.562500 0.688440
f 6/11/6 7/13/7 15/14/15
f 6/11/6 15/14/15 14/12/14
vt 0.593750 0.312500
vt 0.593750 0.688440
f 7/13/7 8/15/8 16/16/16
f 7/13/7 16/16/16 15/14/15
vt 0.625000 0.312500
vt 0.625000 0.688440
f 8/15/8 1/17/1 9/18/9
f 8/15/8 9/18/9 16/16/16
vt 0.500000 0.000000
vt 0.610485 0.045765
vt 0.500000 0.150000
f 2/19/2 1/20/1 17/21/17
vt 0.389515 0.045765
f 2/19/2 17/21/17 3/22/3
vt 0.343750 0.156250
f 4/23/4 3/22/3 17/21/17
vt 0.389515 0.266735
f 4/23/4 17/21/17 5/24/5
f 6/9/6 5/24/5 17/21/17
vt 0.610485 0.266735
f 6/9/6 17/21/17 7/25/7
vt 0.656250 0.156250
f 8/26/8 7/25/7 17/21/17
f 8/26/8 17/21/17 1/20/1
vt 0.500000 0.837500
vt 0.610485 0.954235
vt 0.500000 1.000000
f 18/27/18 9/28/9 10/29/10
vt 0.389515 0.954235
f 18/27/18 10/29/10 11/30/11
vt 0.343750 0.843750
f 18/27/18 11/30/11 12/31/12
vt 0.389515 0.733265
f 18/27/18 12/31/12 13/32/13
vt 0.500000 0.687500
f 18/27/18 13/32/13 14/33/14
vt 0.610485 0.733265
f 18/27/18 14/33/14 15/34/15
vt 0.656250 0.843750
f 18/27/18 15/34/15 16/35/16
f 18/27/18 16/35/16 9/28/9
# 32 faces, 35 coords texture

# End of File
