# This file uses centimeters as units for non-parametric coordinates.

mtllib waterClosing.mtl
g default
v -54.161251 -0.986521 69.883564
v 88.844593 -0.986521 69.883564
v -54.161251 -0.986521 49.153341
v 88.844593 -0.986521 49.153341
vt 0.000000 0.000000
vt 1.000000 0.000000
vt 0.000000 1.000000
vt 1.000000 1.000000
vn 0.000000 1.000000 0.000000
vn 0.000000 1.000000 0.000000
vn 0.000000 1.000000 0.000000
vn 0.000000 1.000000 0.000000
s off
g pPlane1
usemtl initialShadingGroup
f 1/1/1 2/2/2 4/4/3 3/3/4
g default
v 61.488307 -0.986521 50.546368
v 90.282209 -0.986521 50.546368
v 61.488307 -0.986521 -88.346233
v 90.282209 -0.986521 -88.346233
vt 0.000000 0.000000
vt 1.000000 0.000000
vt 0.000000 1.000000
vt 1.000000 1.000000
vn 0.000000 1.000000 0.000000
vn 0.000000 1.000000 0.000000
vn 0.000000 1.000000 0.000000
vn 0.000000 1.000000 0.000000
s off
g pPlane2
usemtl initialShadingGroup
f 5/5/5 6/6/6 8/8/7 7/7/8
