# This file uses centimeters as units for non-parametric coordinates.

mtllib waterNew.mtl
g default
v -26.254348 -0.989000 70.968908
v 82.793964 -0.989001 70.968908
v -26.254348 -0.989000 -91.667092
v 82.793964 -0.989000 -91.667092
vt 0.000000 0.000000
vt 1.000000 0.000000
vt 0.000000 1.000000
vt 1.000000 1.000000
vn 0.000000 1.000000 0.000000
vn 0.000000 1.000000 0.000000
vn 0.000000 1.000000 0.000000
vn 0.000000 1.000000 0.000000
s off
g pPlane3
usemtl initialShadingGroup
f 1/1/1 2/2/2 4/4/3 3/3/4
